<svg height="512pt" viewBox="0 -37 512 512" width="512pt" xmlns="http://www.w3.org/2000/svg"><path d="m256 365.714844c55.898438-.273438 106.835938-32.140625 131.535156-82.289063h-263.070312c24.699218 50.148438 75.636718 82.011719 131.535156 82.289063zm0 0"/><path d="m155.429688 237.714844c5.046874-.007813 9.136718-4.097656 9.140624-9.144532v-18.285156c0-5.050781-4.09375-9.144531-9.140624-9.144531-5.050782 0-9.144532 4.09375-9.144532 9.144531v18.285156c.007813 5.046876 4.097656 9.136719 9.144532 9.144532zm0 0"/><path d="m256 73.140625c-55.898438.277344-106.835938 32.140625-131.535156 82.285156h263.070312c-24.699218-50.144531-75.636718-82.011719-131.535156-82.285156zm0 0"/><path d="m292.570312 219.425781c-.007812-10.09375-8.191406-18.273437-18.285156-18.285156v36.574219c10.09375-.011719 18.277344-8.191406 18.285156-18.289063zm0 0"/><path d="m46.078125 283.425781c28.175781 92.34375 113.378906 155.429688 209.921875 155.429688s181.746094-63.085938 209.921875-155.429688h-58.417969c-25.675781 60.945313-85.371094 100.574219-151.503906 100.574219s-125.828125-39.628906-151.503906-100.574219zm288.640625 100.914063c37.753906-18.011719 68.179688-48.4375 86.191406-86.191406 2.21875-4.472657 7.613282-6.339844 12.121094-4.195313s6.460938 7.507813 4.386719 12.050781c-19.8125 41.542969-53.292969 75.027344-94.835938 94.84375-4.539062 2.070313-9.90625.117188-12.050781-4.390625-2.144531-4.507812-.277344-9.902343 4.195312-12.117187zm0 0"/><path d="m465.921875 155.425781c-28.175781-92.339843-113.378906-155.425781-209.921875-155.425781s-181.746094 63.085938-209.921875 155.425781h58.417969c25.675781-60.941406 85.371094-100.570312 151.503906-100.570312s125.828125 39.628906 151.503906 100.570312zm-288.640625-100.910156c-37.753906 18.011719-68.179688 48.4375-86.191406 86.191406-2.21875 4.472657-7.613282 6.339844-12.121094 4.195313-4.507812-2.144532-6.460938-7.511719-4.386719-12.050782 19.8125-41.546874 53.292969-75.027343 94.835938-94.84375 2.957031-1.46875 6.476562-1.226562 9.207031.632813 2.726562 1.859375 4.242188 5.042969 3.964844 8.332031-.28125 3.289063-2.3125 6.175782-5.316406 7.542969zm0 0"/><path d="m347.429688 237.714844c5.046874-.007813 9.136718-4.097656 9.140624-9.144532v-18.285156c0-5.050781-4.09375-9.144531-9.140624-9.144531-5.050782 0-9.144532 4.09375-9.144532 9.144531v18.285156c.007813 5.046876 4.097656 9.136719 9.144532 9.144532zm0 0"/><path d="m110.539062 265.140625h401.460938v-91.441406h-34.050781l-.050781.015625h-477.898438v91.425781zm273.460938-73.140625c0-4.03125 2.636719-7.582031 6.492188-8.75 3.855468-1.167969 8.023437.324219 10.257812 3.675781l19.820312 29.734375v-24.660156c0-5.050781 4.09375-9.144531 9.144532-9.144531 5.050781 0 9.140625 4.09375 9.140625 9.144531v54.855469c0 4.027343-2.632813 7.582031-6.488281 8.75-.859376.261719-1.753907.394531-2.652344.394531-3.058594 0-5.910156-1.527344-7.605469-4.074219l-19.824219-29.730469v24.660157c0 5.050781-4.09375 9.144531-9.140625 9.144531-5.050781 0-9.144531-4.09375-9.144531-9.144531zm-64 18.285156c0-15.148437 12.28125-27.429687 27.429688-27.429687 15.148437 0 27.425781 12.28125 27.425781 27.429687v18.285156c0 15.148438-12.277344 27.429688-27.425781 27.429688-15.148438 0-27.429688-12.28125-27.429688-27.429688zm-64-18.285156c0-5.050781 4.09375-9.144531 9.144531-9.144531h9.140625c20.199219 0 36.570313 16.375 36.570313 36.570312 0 20.199219-16.371094 36.574219-36.570313 36.574219h-9.140625c-5.050781 0-9.144531-4.09375-9.144531-9.144531zm-64 0c0-4.03125 2.636719-7.582031 6.492188-8.75 3.855468-1.167969 8.023437.324219 10.257812 3.675781l19.820312 29.734375v-24.660156c0-5.050781 4.09375-9.144531 9.144532-9.144531 5.050781 0 9.140625 4.09375 9.140625 9.144531v54.855469c0 4.027343-2.632813 7.582031-6.488281 8.75-.859376.261719-1.753907.394531-2.652344.394531-3.058594 0-5.910156-1.527344-7.605469-4.074219l-19.824219-29.730469v24.660157c0 5.050781-4.09375 9.144531-9.140625 9.144531-5.050781 0-9.144531-4.09375-9.144531-9.144531zm-64 18.285156c0-15.148437 12.28125-27.429687 27.429688-27.429687 15.148437 0 27.425781 12.28125 27.425781 27.429687v18.285156c0 15.148438-12.277344 27.429688-27.425781 27.429688-15.148438 0-27.429688-12.28125-27.429688-27.429688zm-45.714844-18.285156c0-5.050781 4.09375-9.144531 9.144532-9.144531 5.046874 0 9.140624 4.09375 9.140624 9.144531v45.714844h18.285157c5.050781 0 9.144531 4.089844 9.144531 9.140625s-4.09375 9.144531-9.144531 9.144531h-18.285157c-10.09375-.011719-18.273437-8.191406-18.285156-18.285156zm0 0"/></svg>