<svg enable-background="new 0 0 32 32" viewBox="0 0 32 32" xmlns="http://www.w3.org/2000/svg"><g id="Guides"/><g id="_x32_0"/><g id="_x31_9"/><g id="_x31_8"/><g id="_x31_7"/><g id="_x31_6"/><g id="_x31_5"><path d="m26.6582031 2.0253906c-.1542968-.0498047-.3203125-.0253906-.4501953.069336-.1308594.09375-.2080078.2441406-.2080078.4052734v3.7265625c-1.6757813 1.0253906-3.3242188 1.0253906-5 0v-3.7265625c0-.1611328-.0771484-.3115234-.2080078-.4052734-.1298828-.0947266-.2978516-.1191407-.4501953-.069336-1.9990235.6669922-3.3417969 2.5302735-3.3417969 4.6572266 0 .1210938.0058594.71875.0146484.8525391.1523438 2.1220703 1.4423828 3.34375 2.6845703 4.2587891.8144532.5996093 1.3007813 1.5624999 1.3007813 2.5761718v13.1298828c0 1.3789063 1.1210938 2.5 2.5 2.5s2.5-1.1210938 2.5-2.5v-13.1298828c0-1.0126953.4863281-1.9755859 1.3017578-2.5771484 1.2412109-.9140625 2.53125-2.1347656 2.6835938-4.2587891.008789-.1328125.0146484-.7304688.0146484-.8720703 0-2.1074219-1.3427734-3.9707031-3.3417969-4.6367188z"/><path d="m19.6581421 16.8860474-1.8865356-.6288452c-.1660767-.6447754-.420166-1.2526855-.7515869-1.8118896l.8898926-1.7798462c.0962524-.1925049.0585327-.4249878-.093689-.5771484l-.904541-.904541c-.1521606-.1522217-.3846436-.1899414-.5771484-.093689l-1.7798462.8898926c-.5592041-.3314209-1.1671143-.5855103-1.8118896-.7515869l-.6288452-1.8865356c-.0680544-.2041628-.2590944-.3418581-.4743044-.3418581h-1.2792969c-.21521 0-.40625.1376953-.4743042.3418579l-.6288452 1.8865356c-.6447754.1660767-1.2526855.420166-1.8118896.7515869l-1.7798462-.8898926c-.1925049-.0962524-.4249878-.0585327-.5771484.093689l-.904541.904541c-.1522217.1521606-.1899414.3846436-.093689.5771484l.8898926 1.7798462c-.3314209.5592041-.5855103 1.1671143-.7515869 1.8118896l-1.8865356.6288452c-.2041627.0680544-.341858.2590944-.341858.4743044v1.2792969c0 .21521.1376953.40625.3418579.4743042l1.8865356.6288452c.1660767.6447754.420166 1.2526855.7515869 1.8118896l-.8898926 1.7798462c-.0962524.1925049-.0585327.4249878.093689.5771484l.904541.904541c.1521606.1522217.3846436.1899414.5771484.093689l1.7798462-.8898926c.5592041.3314209 1.1671143.5855103 1.8118896.7515869l.6288452 1.8864746c.0680544.2041627.2590944.341919.4743044.341919h1.2792969c.21521 0 .40625-.1377563.4743042-.3419189l.6288452-1.8864746c.6447754-.1660767 1.2526855-.420166 1.8118896-.7515869l1.7798462.8898926c.1925049.0962524.4249878.0585327.5771484-.093689l.904541-.904541c.1522217-.1521606.1899414-.3846436.093689-.5771484l-.8898926-1.7798462c.3314209-.5592041.5855103-1.1671143.7515869-1.8118896l1.8865356-.6288452c.2041627-.0680544.341858-.2590944.341858-.4743044v-1.2792969c0-.2152099-.1376953-.4062499-.3418579-.4743041zm-10.8582153 2.213562c.2207031.1660156.265625.4794922.1005859.7001953-.0986328.1308594-.2490234.2001953-.4003906.2001953-.1044922 0-.2099609-.0322266-.2998047-.0996094l-2-1.5c-.1259766-.0947265-.2001953-.243164-.2001953-.4003906s.0742188-.3056641.2001953-.4003906l2-1.5c.2197266-.1650391.5332031-.1210938.7001953.1005859.1650391.2207031.1201172.5341797-.1005859.7001953l-1.4667969 1.0996094zm3.1744995-2.4419556-1 3c-.0703125.2089844-.265625.3417969-.4746094.3417969-.0527344 0-.1054688-.0078125-.1582031-.0253906-.2617188-.0878906-.4033203-.3710938-.3164063-.6328125l1-3c.0878906-.2617188.3730469-.4013672.6328125-.3164063.2617188.0878906.4033203.3710938.3164063.6328125zm3.8253784 1.7428589-2 1.5c-.0898438.0673828-.1953125.0996094-.2998047.0996094-.1513672 0-.3017578-.0693359-.4003906-.2001953-.1650391-.2207031-.1201172-.5341797.1005859-.7001953l1.4667969-1.0996094-1.4667969-1.0996094c-.2207031-.1660156-.265625-.4794922-.1005859-.7001953.1669922-.2216797.4804688-.265625.7001953-.1005859l2 1.5c.1259766.0947265.2001953.243164.2001953.4003906s-.0742187.305664-.2001953.4003906z"/></g><g id="_x31_4"/><g id="_x31_3"/><g id="_x31_2"/><g id="_x31_1"/><g id="_x31_0"/><g id="_x30_9"/><g id="_x30_8"/><g id="_x30_7"/><g id="_x30_6"/><g id="_x30_5"/><g id="_x30_4"/><g id="_x30_3"/><g id="_x30_2"/><g id="_x30_1"/></svg>