<svg id="Layer_1" enable-background="new 0 0 512 512" viewBox="0 0 512 512" xmlns="http://www.w3.org/2000/svg"><path clip-rule="evenodd" d="m173.11 241.184v-11.322c0-8.157-6.641-14.796-14.805-14.796h-107.502c-8.163 0-14.804 6.64-14.804 14.796v11.322c0 8.161 6.641 14.801 14.804 14.801h107.502c8.163-.001 14.805-6.64 14.805-14.801zm-86.754-46.51c0-1.99 1.621-3.61 3.61-3.61h29.175c1.99 0 3.611 1.62 3.611 3.61v10.39h9.999v-10.39c0-7.51-6.105-13.612-13.61-13.612h-29.174c-7.504 0-13.61 6.101-13.61 13.612v10.39h9.999zm279.167-96.7c23.189 16.609 42.125 38.901 54.76 64.471 1.234 2.492 4.262 3.472 6.698 2.257 2.475-1.217 3.49-4.219 2.266-6.686-13.361-27.041-33.382-50.612-57.902-68.17-2.246-1.601-5.368-1.091-6.976 1.157-1.608 2.242-1.092 5.37 1.154 6.971zm-257.506 64.251c12.633-25.472 31.533-47.69 54.654-64.251 2.246-1.601 2.762-4.729 1.154-6.972-1.608-2.248-4.73-2.758-6.976-1.157-24.449 17.507-44.433 40.999-57.79 67.936-1.656 3.344.794 7.225 4.476 7.225 1.838 0 3.61-1.02 4.482-2.781zm96.903-50.78 55.641 55.64c1.941 1.943 5.13 1.943 7.071 0l55.641-55.64c17.323-17.33 17.331-45.381 0-62.711-16.091-16.089-41.664-17.351-59.177-3.189-17.512-14.161-43.084-12.902-59.177 3.189-17.335 17.334-17.322 45.375.001 62.711zm156.709 115.598v83.659h114.372v-83.659l-57.185-41.369-29.305 21.202c-3.296 2.377-7.933.017-7.933-4.055v-11.055h-8.159v24.199c0 1.601-.771 3.109-2.069 4.05zm-126.025 119.718c0 15.714 12.781 28.492 28.493 28.492s28.493-12.778 28.493-28.492c0-15.709-12.781-28.497-28.493-28.497s-28.493 12.788-28.493 28.497zm-103.381 4.612 45.724 32.94c.85.609 1.873.941 2.923.941h166.454c1.048 0 2.07-.332 2.923-.941l45.725-32.94c5.341-3.849 12.812-2.627 16.657 2.702 3.831 5.322 2.615 12.829-2.707 16.66l-50.193 36.157c-2.358 1.698-4.57 2.234-7.422 2.234h-41.757c-2.76 0-4.999 2.238-4.999 4.996v62.144h-82.907v-62.144c0-2.758-2.24-4.996-5.001-4.996h-41.757c-2.844 0-5.065-.536-7.422-2.234l-50.193-36.157c-5.339-3.84-6.553-11.322-2.707-16.651 3.847-5.338 11.32-6.56 16.659-2.711zm26.082-85.387h-107.502c-5.544 0-10.669-1.831-14.804-4.921v33.301c0 8.157 6.641 14.796 14.804 14.796h107.502c8.163 0 14.805-6.64 14.805-14.796v-33.301c-4.136 3.09-9.261 4.921-14.805 4.921z" fill-rule="evenodd"/></svg>