<svg height="512" viewBox="0 0 32 32" width="512" xmlns="http://www.w3.org/2000/svg"><g id="Layer_2" fill="rgb(0,0,0)" data-name="Layer 2"><path d="m16 19a3 3 0 1 1 3-3.236 3 3 0 0 1 -2.755 3.227c-.09.009-.17.009-.245.009zm0-5c-.053 0-.107 0-.16.006a2 2 0 1 0 2.151 1.837 2 2 0 0 0 -1.991-1.843z"/><path d="m5 19a3 3 0 1 1 3-3.236 3 3 0 0 1 -2.755 3.227c-.09.009-.17.009-.245.009zm0-5c-.053 0-.107 0-.16.006a2 2 0 1 0 2.151 1.837 2 2 0 0 0 -1.991-1.843z"/><path d="m26.981 19a3 3 0 1 1 3-3.236 3 3 0 0 1 -2.755 3.227c-.084.009-.164.009-.245.009zm.009-5c-.053 0-.107 0-.16.006a2 2 0 1 0 2.15 1.837 2 2 0 0 0 -1.99-1.843z"/></g></svg>