<svg fill="none" height="512" viewBox="0 0 24 24" width="512" xmlns="http://www.w3.org/2000/svg"><g fill="rgb(0,0,0)"><path d="m13 13h-6c-.6 0-1-.4-1-1v-7c0-.6.4-1 1-1h6c1.2 0 2.3.5 3.2 1.3.9.9 1.3 2 1.3 3.2s-.5 2.3-1.3 3.2c-.9.8-2 1.3-3.2 1.3zm-5-2h5c.7 0 1.3-.3 1.8-.7.5-.5.7-1.1.7-1.8s-.3-1.3-.7-1.8c-.5-.4-1.1-.7-1.8-.7h-5z"/><path d="m14 20h-7c-.6 0-1-.4-1-1v-7c0-.6.4-1 1-1s1 .4 1 1v6h6c.7 0 1.3-.3 1.8-.7s.7-1.1.7-1.8-.3-1.3-.7-1.8-1.1-.7-1.8-.7h-1c-.6 0-1-.4-1-1s.4-1 1-1h1c1.2 0 2.3.5 3.2 1.3s1.3 2 1.3 3.2-.5 2.3-1.3 3.2c-.9.8-2 1.3-3.2 1.3z"/></g></svg>