<svg fill="none" height="24" viewBox="0 0 24 24" width="24" xmlns="http://www.w3.org/2000/svg"><path clip-rule="evenodd" d="m4.0001 6.10001c-.49706 0-.9.40294-.9.9 0 .49705.40294.9.9.9h1c.49706 0 .9-.40295.9-.9 0-.49706-.40294-.9-.9-.9zm5 0c-.49706 0-.9.40294-.9.9 0 .49705.40294.9.9.9h11c.4971 0 .9-.40295.9-.9 0-.49706-.4029-.9-.9-.9zm0 4.99999c-.49706 0-.9.4029-.9.9s.40294.9.9.9h11c.4971 0 .9-.4029.9-.9 0-.497-.4029-.9-.9-.9zm-.9 5.9c0-.4971.40294-.9.9-.9h11c.4971 0 .9.403.9.9 0 .4971-.4029.9-.9.9h-11c-.49706 0-.9-.4029-.9-.9zm-5-5c0-.4971.40294-.9.9-.9h1c.49706 0 .9.403.9.9 0 .4971-.40294.9-.9.9h-1c-.49706 0-.9-.4029-.9-.9zm.9 4.1c-.49706 0-.9.4029-.9.9s.40294.9.9.9h1c.49706 0 .9-.4029.9-.9s-.40294-.9-.9-.9z" fill="#000" fill-rule="evenodd"/></svg>