<svg fill="none" height="24" viewBox="0 0 24 24" width="24" xmlns="http://www.w3.org/2000/svg"><path d="m3 4c.55228 0 1 .44772 1 1v6h7v-6c0-.55228.4477-1 1-1s1 .44772 1 1v14c0 .5523-.4477 1-1 1s-1-.4477-1-1v-6h-7v6c0 .5523-.44772 1-1 1s-1-.4477-1-1v-14c0-.55228.44772-1 1-1zm15.5 4c2.0711 0 3.75 1.67893 3.75 3.75 0 .8574-.2877 1.6476-.7719 2.2792l-.1479.181-3.2959 3.7898h2.9657c.5523 0 1 .4477 1 1s-.4477 1-1 1h-6l-.0007-1.556 4.8214-5.5459c.2674-.3073.4293-.7088.4293-1.1481 0-.9665-.7835-1.75-1.75-1.75-.5944 0-1.122.3565-1.44.8519-.2928.4561-.7275.8981-1.2695.8981-.5746 0-1.0551-.4748-.898-1.0276.4468-1.57149 1.8927-2.7224 3.6075-2.7224z" fill="rgb(0,0,0)"/></svg>