<svg fill="none" height="24" viewBox="0 0 24 24" width="24" xmlns="http://www.w3.org/2000/svg"><path d="m20.5433 8c.8043 0 1.4562.65236 1.4555 1.45666-.0002.35042-.1269.68894-.3568.95344l-2.1486 2.4729c1.5889.4354 2.7566 1.8898 2.7566 3.617 0 2.0711-1.6789 3.75-3.75 3.75-1.4746 0-2.7504-.8511-3.363-2.0889-.2449-.4949.1206-1.0298.6627-1.1351.5425-.1054 1.0547.2865 1.4373.6853.3184.332.7666.5387 1.263.5387.9665 0 1.75-.7835 1.75-1.75s-.7835-1.75-1.75-1.75c-.286 0-.556.0686-.7944.1903l-1.3064-1.5471 2.9492-3.3932h-3.3484c-.5523 0-1-.44772-1-1s.4477-1 1-1zm-17.5433-4c.55228 0 1 .44772 1 1v6h7v-6c0-.55228.4477-1 1-1s1 .44772 1 1v14c0 .5523-.4477 1-1 1s-1-.4477-1-1v-6h-7v6c0 .5523-.44772 1-1 1s-1-.4477-1-1v-14c0-.55228.44772-1 1-1z" fill="rgb(0,0,0)"/></svg>