<svg viewBox="0 0 32 32" xmlns="http://www.w3.org/2000/svg"><g id="numbering"><path d="m29 8h-18a1 1 0 0 1 0-2h18a1 1 0 0 1 0 2z"/><path d="m29 17h-18a1 1 0 0 1 0-2h18a1 1 0 0 1 0 2z"/><path d="m29 26h-18a1 1 0 0 1 0-2h18a1 1 0 0 1 0 2z"/><path d="m5.93 8.54h1.07v1h-3.56v-1h1.16v-2.21a4.19 4.19 0 0 1 -1 .34v-1a2 2 0 0 0 1.35-.77h1z"/><path d="m6.81 17.44-.05 1.15h-3.55v-1.08l.79-.51c.12-.08.33-.25.65-.51a3.65 3.65 0 0 0 .62-.61.78.78 0 0 0 .15-.44.5.5 0 0 0 -.12-.44.44.44 0 0 0 -.3-.1q-.51 0-.58.81l-1.18-.23a1.84 1.84 0 0 1 .64-1.23 1.92 1.92 0 0 1 1.22-.4 1.85 1.85 0 0 1 1.24.41 1.35 1.35 0 0 1 .48 1.08 1.56 1.56 0 0 1 -.26.86 6 6 0 0 1 -1.56 1.24z"/><path d="m3.09 26.16 1.21-.16q.12.64.68.64a.63.63 0 0 0 .42-.13.44.44 0 0 0 .16-.36.43.43 0 0 0 -.09-.26.52.52 0 0 0 -.19-.16.93.93 0 0 0 -.34 0h-.56v-1h.48c.25 0 .42 0 .49-.14a.45.45 0 0 0 .11-.28.4.4 0 0 0 -.14-.31.52.52 0 0 0 -.32-.14.56.56 0 0 0 -.58.53l-1.13-.18a1.66 1.66 0 0 1 .65-1 2 2 0 0 1 1.18-.36 2 2 0 0 1 1.23.36 1.15 1.15 0 0 1 .46 1 1 1 0 0 1 -.2.63 1 1 0 0 1 -.5.36 1.06 1.06 0 0 1 .84 1.1 1.21 1.21 0 0 1 -.51 1 2.21 2.21 0 0 1 -1.32.37 1.84 1.84 0 0 1 -2.03-1.51z"/></g></svg>