<svg id="Layer_1" height="24" viewBox="0 0 24 24" width="24" xmlns="http://www.w3.org/2000/svg" data-name="Layer 1"><path d="m17 16.5v1a3.5 3.5 0 0 1 -3.5 3.5h-2a3.5 3.5 0 0 1 -3.5-3.5.5.5 0 0 1 1 0 2.5 2.5 0 0 0 2.5 2.5h2a2.5 2.5 0 0 0 2.5-2.5v-1a.5.5 0 0 1 1 0zm1.5-2.5h-1.847a3.5 3.5 0 0 0 -3.153-2h-2a2.5 2.5 0 0 1 -2.5-2.5v-2a2.5 2.5 0 0 1 2.5-2.5h2a2.5 2.5 0 0 1 2.5 2.5.5.5 0 0 0 1 0 3.5 3.5 0 0 0 -3.5-3.5h-2a3.5 3.5 0 0 0 -3.5 3.5v2a3.5 3.5 0 0 0 3.5 3.5h2a2.5 2.5 0 0 1 2 1h-9a.5.5 0 0 0 0 1h12a.5.5 0 0 0 0-1z"/></svg>